<svg preserveAspectRatio="none" width="100%" height="100%" overflow="visible" style="display: block;" viewBox="0 0 18 18" fill="none" xmlns="http://www.w3.org/2000/svg">
<g id="alert_octagon_regular">
<path id="Vector" fill-rule="evenodd" clip-rule="evenodd" d="M6.525 1.518L6.3 1.56375C6.10725 1.602 5.76525 1.7535 5.55975 1.89075C5.3625 2.0235 2.0985 5.27925 1.932 5.5095C1.76433 5.75066 1.63739 6.01771 1.55625 6.3C1.4955 6.543 1.4955 11.457 1.55625 11.7C1.61475 11.9348 1.77675 12.2752 1.932 12.4905C2.0985 12.7207 5.3625 15.9765 5.55975 16.1092C5.75025 16.2367 6.0945 16.392 6.3 16.4437C6.543 16.5045 11.457 16.5045 11.7 16.4437C11.9055 16.392 12.2498 16.2367 12.4403 16.1092C12.6375 15.9765 15.9015 12.7207 16.068 12.4905C16.2233 12.2752 16.3852 11.9348 16.4437 11.7C16.5045 11.457 16.5045 6.543 16.4437 6.3C16.3626 6.01771 16.2357 5.75066 16.068 5.5095C15.9023 5.28 12.6383 2.0235 12.4418 1.89225C12.2267 1.75534 11.9954 1.64574 11.7532 1.566C11.6137 1.52325 11.3033 1.51725 9.09 1.512C7.71225 1.50825 6.558 1.51125 6.525 1.518ZM11.475 3.072C11.6873 3.17325 14.8478 6.33825 14.9378 6.54C14.997 6.672 14.9985 6.73275 14.9993 9V11.325L14.928 11.475C14.8267 11.6873 11.6618 14.8477 11.46 14.9377C11.328 14.997 11.2673 14.9985 9 14.9985C6.73275 14.9985 6.672 14.997 6.54 14.9377C6.33825 14.8477 3.17325 11.6873 3.072 11.475L3.00075 11.325V6.675L3.072 6.525C3.17325 6.31275 6.33825 3.15225 6.54 3.06225C6.672 3.003 6.73275 3.0015 9 3.00075H11.325L11.475 3.072ZM8.75475 4.54725C8.559 4.60725 8.355 4.81575 8.29575 5.0175C8.25675 5.14875 8.25 5.5035 8.25 7.515C8.25 10.1625 8.2395 10.0343 8.4795 10.275C8.6145 10.4093 8.823 10.5 9 10.5C9.17775 10.5 9.3855 10.41 9.52275 10.2727C9.759 10.0365 9.75 10.1437 9.75 7.5C9.75 4.85625 9.759 4.9635 9.52275 4.72725C9.3135 4.518 9.05025 4.4565 8.75475 4.54725ZM8.75475 11.2973C8.478 11.3828 8.25 11.7068 8.25 12.015C8.25 12.3113 8.48925 12.6233 8.78175 12.708C8.89963 12.7453 9.02498 12.7525 9.14635 12.7289C9.26772 12.7053 9.38125 12.6516 9.47656 12.5729C9.57187 12.4941 9.64594 12.3927 9.69201 12.278C9.73807 12.1633 9.75465 12.0388 9.74025 11.916C9.72572 11.7756 9.67091 11.6423 9.58243 11.5323C9.49395 11.4222 9.37556 11.3401 9.2415 11.2958C9.084 11.2403 8.94 11.2403 8.75475 11.2973Z" fill="var(--fill-0, #F5A64A)"/>
</g>
</svg>
