<svg width="321" height="54" viewBox="0 0 321 54" fill="none" xmlns="http://www.w3.org/2000/svg">
  <path d="M10.2927 0H4.14798e-05V14.9432H10.2927V0Z" fill="#F4652F"/>
  <path d="M4.14798e-05 53.664H10.2927V38.7092H0L4.14798e-05 53.664Z" fill="#F4652F"/>
  <path d="M43.355 22.3632C48.9513 23.9508 53.0319 29.125 53.0319 35.2989C53.0319 42.7662 47.0276 48.7637 39.6824 48.7637H27.1001V53.664H16.8074V38.7092H37.7587C39.6241 38.7092 41.1398 37.1804 41.1398 35.2989C41.1398 33.4173 39.6241 31.8885 37.7587 31.8885H0V21.7752H28.6647C30.5301 21.7752 32.0458 20.2465 32.0458 18.3649C32.0458 16.4834 30.5301 14.9546 28.6647 14.9546L27.1001 14.9432H16.8074V0H27.1001V4.90011H30.5884C37.9336 4.90011 43.9379 10.9563 43.9379 18.3649C43.9379 19.7761 43.7048 21.1285 43.355 22.3632Z" fill="#F4652F"/>
  <path d="M225.433 26.7744C225.433 15.0122 234.856 5.47687 246.536 5.47687H273.113V15.0693H248.511C243.828 15.0693 239.822 17.8671 238.016 21.9211H263.366V31.6278H236.944V48.072H225.433V26.7744Z" fill="#FFFFFF"/>
  <path d="M296.134 38.4802H320.736V48.0727L294.216 48.1869C282.536 48.1869 273.113 38.6515 273.113 26.8322C273.113 15.07 282.536 5.53468 294.16 5.53468H320.736V15.2984H299.407C294.09 15.2984 290.797 16.5114 288.63 17.9821C287.375 19.0496 286.366 20.394 285.674 21.9198H310.989V31.6123L285.674 31.6901C287.493 35.6849 291.483 38.4802 296.134 38.4802Z" fill="#FFFFFF"/>
  <path d="M72.8022 5.53468H121.892V15.2984H103.103V48.1298H91.5919V15.2984H72.8022V5.53468Z" fill="#FFFFFF"/>
  <path d="M159.363 21.9211C166.473 21.9211 172.285 27.7451 172.285 34.9966C172.285 42.248 166.473 48.1291 159.307 48.1291H123.354V38.3082H157.501C159.307 38.3082 160.774 36.8237 160.774 34.9966C160.774 33.1694 159.307 31.6849 157.501 31.6849H136.502C129.336 31.6849 123.58 25.8038 123.58 18.6094C123.58 11.358 129.336 5.47687 136.502 5.47687H165.664V15.2406H138.364C136.558 15.2406 135.091 16.7252 135.091 18.5523C135.091 20.3795 136.558 21.864 138.364 21.864H155.583V21.9211H159.363Z" fill="#FFFFFF"/>
  <path d="M69.878 48.1298H58.4237V5.53468H69.878V48.1298Z" fill="#FFFFFF"/>
  <path d="M221.047 15.2984V48.1869H209.333V31.5956V21.8856V15.2984H221.047Z" fill="#FFFFFF"/>
  <path d="M186.468 16.4404C189.572 9.75993 196.173 5.53468 203.452 5.53468H221.047V15.2984H209.333H205.201C201.421 15.2984 197.979 17.5253 196.399 20.9511L195.968 21.8856L191.485 31.5956L188.387 38.309L184.068 48.1869H171.797L186.468 16.4404Z" fill="#FFFFFF"/>
  <path d="M195.968 21.8856H209.333V31.5956H191.485L195.968 21.8856Z" fill="#FFFFFF"/>
</svg>
