<svg preserveAspectRatio="none" width="100%" height="100%" overflow="visible" style="display: block;" viewBox="0 0 20 20" fill="none" xmlns="http://www.w3.org/2000/svg">
<g id="Frame">
<path id="Union" d="M17.3047 9.18167C17.4863 8.99812 17.7832 8.99809 17.9668 9.18167C18.1503 9.3633 18.1503 9.66021 17.9668 9.84378L10.3223 17.4883C10.1387 17.6719 9.8418 17.6718 9.66016 17.4903L2.07227 9.90237C1.98048 9.81059 1.93555 9.69143 1.93555 9.57034C1.93555 9.44925 1.98047 9.33011 2.07227 9.23831C2.25391 9.05476 2.5508 9.05473 2.73438 9.23831L9.99023 16.4942L17.3047 9.18167ZM17.3047 2.51175C17.4863 2.3282 17.7832 2.32817 17.9668 2.51175C18.1503 2.69338 18.1503 2.99029 17.9668 3.17386L10.3223 10.8184C10.2344 10.9063 10.1152 10.9551 9.99023 10.9551C9.86722 10.9551 9.74804 10.9062 9.66016 10.8203L2.07227 3.23245C1.98048 3.14066 1.93555 3.0215 1.93555 2.90042C1.93555 2.77933 1.98047 2.66019 2.07227 2.56839C2.25391 2.38484 2.5508 2.38481 2.73438 2.56839L9.99023 9.82425L17.3047 2.51175Z" fill="var(--fill-0, #F3F0E9)"/>
</g>
</svg>
