<svg preserveAspectRatio="none" width="100%" height="100%" overflow="visible" style="display: block;" viewBox="0 0 20 20" fill="none" xmlns="http://www.w3.org/2000/svg">
<g id="alert_octagon_regular">
<path id="Vector" fill-rule="evenodd" clip-rule="evenodd" d="M8.0171 4.00585L7.83684 4.0425C7.68242 4.07314 7.40843 4.19451 7.2438 4.30447C7.08577 4.41082 4.47085 7.01914 4.33746 7.2036C4.20313 7.39681 4.10143 7.61075 4.03643 7.83691C3.98776 8.03158 3.98776 11.9684 4.03643 12.1631C4.08329 12.3511 4.21308 12.6239 4.33746 12.7964C4.47085 12.9808 7.08577 15.5892 7.2438 15.6955C7.39641 15.7976 7.67221 15.922 7.83684 15.9635C8.03152 16.0122 11.9683 16.0122 12.163 15.9635C12.3276 15.922 12.6034 15.7976 12.7561 15.6955C12.9141 15.5892 15.529 12.9808 15.6624 12.7964C15.7868 12.6239 15.9166 12.3511 15.9634 12.1631C16.0121 11.9684 16.0121 8.03158 15.9634 7.83691C15.8984 7.61075 15.7967 7.39681 15.6624 7.2036C15.5296 7.01974 12.9147 4.41082 12.7573 4.30567C12.585 4.19599 12.3997 4.10819 12.2057 4.0443C12.0939 4.01005 11.8452 4.00525 10.072 4.00104C8.96825 3.99803 8.04354 4.00044 8.0171 4.00585ZM11.9828 5.25082C12.1528 5.33194 14.6848 7.86755 14.7569 8.02918C14.8044 8.13493 14.8056 8.1836 14.8062 9.99999V11.8626L14.7491 11.9828C14.668 12.1529 12.1324 14.6849 11.9707 14.757C11.865 14.8044 11.8163 14.8056 9.99993 14.8056C8.18354 14.8056 8.13487 14.8044 8.02912 14.757C7.86749 14.6849 5.33187 12.1529 5.25076 11.9828L5.19368 11.8626V8.13733L5.25076 8.01716C5.33187 7.84712 7.86749 5.31511 8.02912 5.24301C8.13487 5.19554 8.18354 5.19434 9.99993 5.19374H11.8626L11.9828 5.25082ZM9.80345 6.4327C9.64662 6.48077 9.48319 6.64781 9.43572 6.80944C9.40448 6.91459 9.39907 7.1988 9.39907 8.81029C9.39907 10.9313 9.39066 10.8286 9.58293 11.0214C9.69108 11.129 9.85812 11.2017 9.99993 11.2017C10.1423 11.2017 10.3088 11.1296 10.4187 11.0196C10.608 10.8304 10.6008 10.9163 10.6008 8.79828C10.6008 6.68026 10.608 6.76618 10.4187 6.57691C10.2511 6.40927 10.0402 6.36 9.80345 6.4327ZM9.80345 11.8404C9.58173 11.9089 9.39907 12.1685 9.39907 12.4154C9.39907 12.6528 9.59074 12.9027 9.82508 12.9706C9.91952 13.0005 10.0199 13.0062 10.1172 12.9873C10.2144 12.9684 10.3054 12.9255 10.3817 12.8624C10.4581 12.7993 10.5174 12.7181 10.5543 12.6261C10.5912 12.5342 10.6045 12.4345 10.593 12.3361C10.5813 12.2236 10.5374 12.1168 10.4665 12.0287C10.3956 11.9405 10.3008 11.8747 10.1934 11.8392C10.0672 11.7947 9.95186 11.7947 9.80345 11.8404Z" fill="#71716F"/>
</g>
</svg>
