<svg preserveAspectRatio="none" width="100%" height="100%" overflow="visible" style="display: block;" viewBox="0 0 93.6 104" fill="none" xmlns="http://www.w3.org/2000/svg">
<g id="Frame 1437253831">
<g id="Star 1" filter="url(#filter0_d_0_9)">
<path d="M46.8 12L64.2 21.8623L81.441 32L81.6 52L81.441 72L64.2 82.1377L46.8 92L29.4 82.1377L12.159 72L12 52L12.159 32L29.4 21.8623L46.8 12Z" fill="black" fill-opacity="0.1" shape-rendering="crispEdges"/>
<path d="M63.7072 22.7324L80.4445 32.5742L80.5998 52.0078L80.4445 71.4248L63.7072 81.2676L46.8 90.8496L29.8928 81.2676L13.1545 71.4248L13.0002 52.0078L13.1545 32.5742L29.8928 22.7324L46.8 13.1494L63.7072 22.7324Z" stroke="#F5A64A" stroke-width="2" shape-rendering="crispEdges"/>
</g>
<g id="lucide/check">
<path id="Vector" d="M57.4667 44L42.8 58.6667L36.1333 52" stroke="#F5A64A" stroke-width="3"/>
</g>
</g>
<defs>
<filter id="filter0_d_0_9" x="0" y="0" width="93.6" height="104" filterUnits="userSpaceOnUse" color-interpolation-filters="sRGB">
<feFlood flood-opacity="0" result="BackgroundImageFix"/>
<feColorMatrix in="SourceAlpha" type="matrix" values="0 0 0 0 0 0 0 0 0 0 0 0 0 0 0 0 0 0 127 0" result="hardAlpha"/>
<feOffset/>
<feGaussianBlur stdDeviation="6"/>
<feComposite in2="hardAlpha" operator="out"/>
<feColorMatrix type="matrix" values="0 0 0 0 0.960784 0 0 0 0 0.65098 0 0 0 0 0.290196 0 0 0 0.3 0"/>
<feBlend mode="normal" in2="BackgroundImageFix" result="effect1_dropShadow_0_9"/>
<feBlend mode="normal" in="SourceGraphic" in2="effect1_dropShadow_0_9" result="shape"/>
</filter>
</defs>
</svg>
