<svg preserveAspectRatio="none" width="100%" height="100%" overflow="visible" style="display: block;" viewBox="0 0 16.5524 17.4097" fill="none" xmlns="http://www.w3.org/2000/svg">
<g id="Group 8">
<path id="Subtract" d="M6.34409 0.187881C6.55789 0.00687609 6.848 -0.047114 7.10972 0.0423734L14.9828 2.74257C15.2802 2.84463 15.4964 3.11456 15.5365 3.4369L16.5453 11.5014C16.5831 11.7968 16.4692 12.0886 16.2474 12.2738L10.6527 16.9467C10.5189 17.0569 10.3547 17.1229 10.1849 17.1312L5.07358 17.4086C4.83779 17.4211 4.60561 17.3249 4.44175 17.1459L0.224952 12.5277C0.047162 12.3342 -0.0307915 12.0653 0.0110848 11.8031L1.12241 4.85683C1.15639 4.65286 1.25856 4.46744 1.41441 4.33632L6.34214 0.189834L6.34409 0.187881ZM9.36851 4.67812C9.11719 4.67812 8.90381 4.9856 9.01597 5.18397L10.808 8.34804C10.947 8.54838 10.8857 8.83418 10.6439 9.03651L8.59898 10.7562C8.2696 11.0339 8.19724 11.4544 8.36655 11.7084L8.80601 12.3656C8.96217 12.5977 9.19125 12.7387 9.51499 12.7367L12.9867 12.7328C13.1295 12.7327 13.3384 12.6449 13.4203 12.5121C13.5002 12.3813 13.47 12.2013 13.3978 12.0941L13.3959 12.098L11.3109 9.06093C11.1662 8.84872 11.2422 8.56507 11.4896 8.35878L13.5287 6.65858C13.8467 6.39276 13.961 6.01126 13.7972 5.7494L13.4398 5.18202C13.2171 4.82914 12.9199 4.67822 12.4593 4.67812H9.36851ZM5.1937 4.68202C4.90052 4.68212 4.65458 4.89909 4.57651 5.20253L2.78062 12.1791C2.6951 12.5102 2.84628 12.7328 3.15659 12.7328H5.96128C6.26403 12.7328 6.53467 12.5003 6.61851 12.181L7.40269 9.14589L8.42612 5.22011C8.5042 4.92255 8.33385 4.68202 8.04819 4.68202H5.1937Z" fill="url(#paint0_linear_0_28)"/>
</g>
<defs>
<linearGradient id="paint0_linear_0_28" x1="5.20166" y1="1.51846" x2="10.2731" y2="17.2832" gradientUnits="userSpaceOnUse">
<stop stop-color="#7BCAF3"/>
<stop offset="1" stop-color="#B5D5E6"/>
</linearGradient>
</defs>
</svg>
