<svg preserveAspectRatio="none" width="100%" height="100%" overflow="visible" style="display: block;" viewBox="0 0 16.5515 17.4095" fill="none" xmlns="http://www.w3.org/2000/svg">
<g id="Group 8">
<path id="Subtract" d="M6.34315 0.188626C6.55694 0.00755644 6.84703 -0.0473163 7.10878 0.0421412L14.9818 2.74234C15.2796 2.84433 15.4956 3.11501 15.5355 3.43765L16.5443 11.5011C16.5823 11.7967 16.4683 12.0883 16.2465 12.2736L10.6517 16.9464C10.5179 17.0568 10.3538 17.1237 10.184 17.132L5.07264 17.4084C4.83686 17.4208 4.60466 17.3256 4.44081 17.1466L0.224988 12.5275C0.0471426 12.3339 -0.030843 12.0652 0.0111204 11.8029L1.12245 4.85659C1.15648 4.65296 1.25793 4.46807 1.41346 4.33706L6.3412 0.190579L6.34315 0.188626ZM9.36757 4.67886C9.11619 4.67886 8.90267 4.98635 9.01503 5.18472L10.807 8.34878C10.9459 8.54913 10.8848 8.83495 10.643 9.03726L8.59803 10.757C8.26868 11.0347 8.19614 11.4552 8.36561 11.7091L8.80604 12.3654C8.9622 12.5975 9.19034 12.7385 9.51405 12.7365L12.9857 12.7326C13.1285 12.7326 13.3383 12.6457 13.4203 12.5128C13.5003 12.3819 13.4692 12.201 13.3969 12.0939L13.3949 12.0978L11.3099 9.0607C11.1653 8.8485 11.2413 8.56484 11.4887 8.35855L13.5287 6.65835C13.8465 6.39264 13.9607 6.01196 13.7973 5.75015L13.4389 5.18277C13.2161 4.82969 12.9192 4.67889 12.4584 4.67886H9.36757ZM5.19374 4.68277C4.90046 4.68277 4.65463 4.89879 4.57655 5.2023L2.78065 12.1789C2.69495 12.5101 2.84524 12.7326 3.15565 12.7326H5.96034C6.26314 12.7326 6.53377 12.5002 6.61757 12.1808L7.40272 9.14566L8.42518 5.21988C8.50311 4.92249 8.33368 4.6829 8.04823 4.68277H5.19374Z" fill="url(#paint0_linear_0_16)"/>
</g>
<defs>
<linearGradient id="paint0_linear_0_16" x1="5.20101" y1="1.51825" x2="10.2723" y2="17.2832" gradientUnits="userSpaceOnUse">
<stop stop-color="#FFB064"/>
<stop offset="1" stop-color="#FBD6B3"/>
</linearGradient>
</defs>
</svg>
