<svg preserveAspectRatio="none" width="100%" height="100%" overflow="visible" style="display: block;" viewBox="0 0 16 16" fill="none" xmlns="http://www.w3.org/2000/svg">
<g id="Frame">
<path id="Union" d="M6.82918 2.11531C7.99305 1.8838 9.19963 2.00299 10.296 2.45711C11.3923 2.91123 12.3291 3.68039 12.9884 4.66707C13.6476 5.65373 14.0001 6.81344 14.0001 8.00008C14.0001 9.59134 13.3675 11.1171 12.2423 12.2423C11.1171 13.3675 9.59134 14.0001 8.00008 14.0001C6.81344 14.0001 5.65373 13.6476 4.66707 12.9884C3.68039 12.3291 2.91123 11.3923 2.45711 10.296C2.00299 9.19963 1.8838 7.99305 2.11531 6.82918C2.34686 5.66542 2.91885 4.59693 3.75789 3.75789C4.59693 2.91885 5.66542 2.34686 6.82918 2.11531ZM8.00008 2.75008C6.96174 2.75008 5.94644 3.05797 5.08309 3.63484C4.21981 4.21171 3.54683 5.03204 3.14949 5.99129C2.75226 6.9505 2.64812 8.00623 2.85066 9.02449C3.05326 10.0428 3.55399 10.9778 4.28816 11.712C5.02236 12.4462 5.95732 12.9469 6.97566 13.1495C7.99395 13.352 9.04965 13.2479 10.0089 12.8507C10.9681 12.4533 11.7884 11.7803 12.3653 10.9171C12.9422 10.0537 13.2501 9.0384 13.2501 8.00008C13.2501 6.60773 12.6965 5.27272 11.712 4.28816C10.7274 3.30362 9.39243 2.75009 8.00008 2.75008ZM7.94441 10.002C8.0286 9.99767 8.11329 10.0102 8.19246 10.0391C8.2716 10.0681 8.34389 10.1133 8.40535 10.171C8.46747 10.2283 8.51616 10.2987 8.54793 10.377C8.5797 10.4555 8.59368 10.5406 8.58895 10.6251C8.59074 10.709 8.57549 10.7924 8.54402 10.8702C8.51245 10.9482 8.46516 11.0191 8.40535 11.0782C8.27787 11.193 8.11204 11.2564 7.94051 11.255C7.77381 11.253 7.61447 11.1859 7.49617 11.0684C7.37792 10.9509 7.30971 10.7918 7.30672 10.6251C7.30298 10.5411 7.31853 10.4572 7.35164 10.38C7.38475 10.3027 7.43473 10.234 7.49813 10.1788C7.55582 10.1195 7.62531 10.0725 7.70223 10.0421C7.77907 10.0118 7.8619 9.9982 7.94441 10.002ZM8.07918 4.89461C8.58085 4.86318 9.07576 5.0243 9.46297 5.3448C9.63524 5.50246 9.77103 5.69646 9.86043 5.91219C9.94971 6.12781 9.99081 6.36067 9.98055 6.59383C9.99386 6.97449 9.8805 7.34893 9.65828 7.65828C9.42216 7.90038 9.1715 8.12857 8.90828 8.3409C8.75591 8.46418 8.62851 8.61588 8.53328 8.78719C8.43785 8.96709 8.38918 9.16855 8.39363 9.37215V9.52254H7.47957V9.37215C7.4696 9.08688 7.52612 8.80273 7.64461 8.54305C7.91905 8.1327 8.25541 7.76744 8.64168 7.46004L8.79207 7.295C8.94056 7.11534 9.023 6.89035 9.02742 6.6573C9.03949 6.39441 8.94801 6.13762 8.77254 5.94148C8.67231 5.84849 8.55393 5.77669 8.42488 5.73152C8.29594 5.68645 8.15876 5.6686 8.02254 5.67879C7.8596 5.66456 7.69587 5.69148 7.54598 5.75691C7.39595 5.82243 7.2645 5.92445 7.16414 6.05379C6.99065 6.32038 6.90766 6.63577 6.92781 6.9532H6.02059C6.00629 6.67838 6.04855 6.40348 6.14461 6.14559C6.24071 5.88765 6.38849 5.65171 6.57918 5.4532C6.7782 5.2633 7.01378 5.11563 7.27156 5.01961C7.52943 4.92356 7.80434 4.88115 8.07918 4.89461Z" fill="#F3F0E9" fill-opacity="0.4"/>
</g>
</svg>
