<svg preserveAspectRatio="none" width="100%" height="100%" overflow="visible" style="display: block;" viewBox="0 0 14 14" fill="none" xmlns="http://www.w3.org/2000/svg">
<g id="lucide/share-2">
<path id="Vector" d="M5.01083 7.88083L8.995 10.2025M8.98917 3.7975L5.01083 6.11917M12.25 2.91667C12.25 3.88316 11.4665 4.66667 10.5 4.66667C9.5335 4.66667 8.75 3.88316 8.75 2.91667C8.75 1.95017 9.5335 1.16667 10.5 1.16667C11.4665 1.16667 12.25 1.95017 12.25 2.91667ZM5.25 7C5.25 7.9665 4.4665 8.75 3.5 8.75C2.5335 8.75 1.75 7.9665 1.75 7C1.75 6.0335 2.5335 5.25 3.5 5.25C4.4665 5.25 5.25 6.0335 5.25 7ZM12.25 11.0833C12.25 12.0498 11.4665 12.8333 10.5 12.8333C9.5335 12.8333 8.75 12.0498 8.75 11.0833C8.75 10.1168 9.5335 9.33333 10.5 9.33333C11.4665 9.33333 12.25 10.1168 12.25 11.0833Z" stroke="url(#paint0_linear_0_10)" stroke-width="1.2" stroke-linecap="round" stroke-linejoin="round"/>
</g>
<defs>
<linearGradient id="paint0_linear_0_10" x1="1.75" y1="7" x2="12.25" y2="7" gradientUnits="userSpaceOnUse">
<stop stop-color="#F5A85F"/>
<stop offset="1" stop-color="#B0D6EA"/>
</linearGradient>
</defs>
</svg>
