<svg preserveAspectRatio="none" width="100%" height="100%" overflow="visible" style="display: block;" viewBox="0 0 12 12" fill="none" xmlns="http://www.w3.org/2000/svg">
<g id="more_1_regular">
<path id="Vector" fill-rule="evenodd" clip-rule="evenodd" d="M1.65416 5.03186C1.3998 5.13679 1.19095 5.33135 1.06568 5.58005C1.00871 5.69883 1 5.75413 1 6.0033C1 6.26613 1.0067 6.30299 1.07842 6.44772C1.17158 6.63409 1.37668 6.84026 1.563 6.9331C1.67962 6.99113 1.73391 7 1.97855 7C2.22319 7 2.27748 6.99113 2.3941 6.9331C2.58043 6.84026 2.78552 6.63409 2.87869 6.44772C2.9504 6.30299 2.9571 6.26613 2.9571 6.0033C2.9571 5.75413 2.94839 5.69883 2.89142 5.58005C2.7828 5.37266 2.61782 5.20154 2.41622 5.08716C2.28351 5.01889 2.22721 5.00728 2.0067 5.00114C1.83713 4.99636 1.71783 5.0066 1.65416 5.03186ZM5.6756 5.03186C5.42125 5.13679 5.21239 5.33135 5.08713 5.58005C5.03016 5.69883 5.02145 5.75413 5.02145 6.0033C5.02145 6.26613 5.02815 6.30299 5.09987 6.44772C5.19303 6.63409 5.39812 6.84026 5.58445 6.9331C5.70107 6.99113 5.75536 7 6 7C6.24464 7 6.29893 6.99113 6.41555 6.9331C6.60188 6.84026 6.80697 6.63409 6.90013 6.44772C6.97185 6.30299 6.97855 6.26613 6.97855 6.0033C6.97855 5.75413 6.96984 5.69883 6.91287 5.58005C6.80425 5.37266 6.63927 5.20154 6.43767 5.08716C6.30496 5.01889 6.24866 5.00728 6.02815 5.00114C5.85858 4.99636 5.73928 5.0066 5.6756 5.03186ZM9.69705 5.03186C9.4427 5.13679 9.23384 5.33135 9.10858 5.58005C9.05161 5.69883 9.0429 5.75413 9.0429 6.0033C9.0429 6.26613 9.0496 6.30299 9.12131 6.44772C9.21448 6.63409 9.41957 6.84026 9.6059 6.9331C9.72252 6.99113 9.77681 7 10.0214 7C10.2661 7 10.3204 6.99113 10.437 6.9331C10.6233 6.84026 10.8284 6.63409 10.9216 6.44772C10.9933 6.30299 11 6.26613 11 6.0033C11 5.75413 10.9913 5.69883 10.9343 5.58005C10.8257 5.37266 10.6607 5.20154 10.4591 5.08716C10.3264 5.01889 10.2701 5.00728 10.0496 5.00114C9.88003 4.99636 9.76073 5.0066 9.69705 5.03186Z" fill="#71716F"/>
</g>
</svg>
