<svg width="16" height="14" viewBox="0 0 16 14" fill="none" xmlns="http://www.w3.org/2000/svg">
<path fill-rule="evenodd" clip-rule="evenodd" d="M1.09992 6.02691C5.39488 4.05119 8.25885 2.74867 9.69185 2.11936C13.7834 0.322542 14.6335 0.0104165 15.1877 0.000109891C15.3095 -0.00215693 15.5821 0.0297341 15.7586 0.180964C15.9076 0.30866 15.9486 0.481158 15.9683 0.602228C15.9879 0.723297 16.0123 0.999097 15.9929 1.2146C15.7712 3.6743 14.8118 9.64335 14.3237 12.3983C14.1172 13.564 13.7105 13.9548 13.3169 13.9931C12.4613 14.0762 11.8116 13.3961 10.9829 12.8225C9.68624 11.9251 8.9537 11.3664 7.69503 10.4907C6.24043 9.47859 7.18338 8.92233 8.01236 8.01324C8.22931 7.77533 11.999 4.15509 12.0719 3.82668C12.0811 3.7856 12.0895 3.6325 12.0034 3.55166C11.9172 3.47081 11.7901 3.49846 11.6983 3.52045C11.5683 3.55161 9.4968 4.99723 5.48389 7.8573C4.89591 8.2836 4.36333 8.49131 3.88616 8.48042C3.36012 8.46842 2.34822 8.16638 1.59598 7.90821C0.673328 7.59154 -0.0599784 7.42412 0.00387615 6.88633C0.0371355 6.60621 0.402482 6.31974 1.09992 6.02691Z" fill="#003B2E"/>
</svg>
