<svg width="64" height="64" viewBox="0 0 64 64" fill="none" xmlns="http://www.w3.org/2000/svg">
  <rect width="64" height="64" rx="14" fill="#050507"/>
  <path fill-rule="evenodd" clip-rule="evenodd" d="M26.1453 16.3457C26.5547 16.0129 27.11 15.9136 27.6112 16.0781L42.6854 21.0401C43.2555 21.2275 43.6694 21.7253 43.7459 22.3184L45.6776 37.1397C45.7503 37.683 45.5319 38.2191 45.1073 38.5596L34.3944 47.1494C34.1382 47.3519 33.8247 47.4739 33.4998 47.4893L23.7127 47.9981C23.2614 48.021 22.8175 47.8454 22.5037 47.5166L14.4305 39.0264C14.09 38.6706 13.941 38.1764 14.0213 37.6944L16.1483 24.9278C16.2133 24.5528 16.4084 24.2118 16.7069 23.9707L26.1414 16.3496L26.1453 16.3457ZM31.9364 24.5996C31.455 24.5996 31.0464 25.1647 31.2616 25.5293L34.6922 31.3448C34.9584 31.713 34.8418 32.2385 34.3787 32.6104L30.4627 35.7715C29.832 36.282 29.6939 37.0548 30.0184 37.5215L30.8602 38.7285C31.1592 39.1551 31.5968 39.4148 32.2166 39.4112L38.8641 39.4033C39.1374 39.4033 39.5382 39.2431 39.6951 38.999C39.8483 38.7584 39.7898 38.4264 39.6512 38.2295L39.6483 38.2364L35.6551 32.6543C35.378 32.2642 35.5239 31.7425 35.9979 31.3633L39.9032 28.2383C40.512 27.7497 40.7304 27.0497 40.4168 26.5684L39.7313 25.5254C39.3048 24.8767 38.7363 24.5997 37.8543 24.5996H31.9364ZM23.9432 24.6065C23.3818 24.6066 22.911 25.0037 22.7616 25.5615L19.3231 38.3858C19.1591 38.9946 19.4476 39.4033 20.0418 39.4033H25.4129C25.9926 39.4033 26.5102 38.9766 26.6707 38.3897L28.1727 32.8106L30.1317 25.5948C30.2812 25.0478 29.956 24.6065 29.409 24.6065H23.9432Z" fill="white"/>
</svg>
