<svg width="124" height="34" viewBox="3 15 124 34" fill="none" xmlns="http://www.w3.org/2000/svg">
<defs>
<linearGradient id="rockyLogoGradient" x1="5" y1="17" x2="35" y2="47" gradientUnits="userSpaceOnUse">
<stop stop-color="#F5A85F"/>
<stop offset="0.52" stop-color="#E2BE88"/>
<stop offset="1" stop-color="#B0D6EA"/>
</linearGradient>
</defs>
<path fill-rule="evenodd" clip-rule="evenodd" d="M16.1453 16.3457C16.5547 16.0129 17.11 15.9136 17.6112 16.0781L32.6854 21.0401C33.2555 21.2275 33.6694 21.7253 33.7459 22.3184L35.6776 37.1397C35.7503 37.683 35.5319 38.2191 35.1073 38.5596L24.3944 47.1494C24.1382 47.3519 23.8247 47.4739 23.4998 47.4893L13.7127 47.9981C13.2614 48.021 12.8175 47.8454 12.5037 47.5166L4.4305 39.0264C4.08998 38.6706 3.94097 38.1764 4.02132 37.6944L6.14827 24.9278C6.21331 24.5528 6.40843 24.2118 6.70686 23.9707L16.1414 16.3496L16.1453 16.3457ZM21.9364 24.5996C21.455 24.5996 21.0464 25.1647 21.2616 25.5293L24.6922 31.3448C24.9584 31.713 24.8418 32.2385 24.3787 32.6104L20.4627 35.7715C19.832 36.282 19.6939 37.0548 20.0184 37.5215L20.8602 38.7285C21.1592 39.1551 21.5968 39.4148 22.2166 39.4112L28.8641 39.4033C29.1374 39.4033 29.5382 39.2431 29.6951 38.999C29.8483 38.7584 29.7898 38.4264 29.6512 38.2295L29.6483 38.2364L25.6551 32.6543C25.378 32.2642 25.5239 31.7425 25.9979 31.3633L29.9032 28.2383C30.512 27.7497 30.7304 27.0497 30.4168 26.5684L29.7313 25.5254C29.3048 24.8767 28.7363 24.5997 27.8543 24.5996H21.9364ZM13.9432 24.6065C13.3818 24.6066 12.911 25.0037 12.7616 25.5615L9.32308 38.3858C9.15909 38.9946 9.44757 39.4033 10.0418 39.4033H15.4129C15.9926 39.4033 16.5102 38.9766 16.6707 38.3897L18.1727 32.8106L20.1317 25.5948C20.2812 25.0478 19.956 24.6065 19.409 24.6065H13.9432Z" fill="url(#rockyLogoGradient)"/>
<path d="M57.2336 29.6917C57.2336 31.9146 56.2787 33.182 54.3738 33.494L57.3903 39.9432H54.8537L51.8813 33.572H46.8669V39.9432H44.5752V23.998H53.3455C55.9359 23.998 57.2336 25.2898 57.2336 27.8783V29.6917ZM46.8669 31.2906H53.2231C53.8352 31.2906 54.271 31.159 54.5403 30.8909C54.8097 30.6228 54.9419 30.1889 54.9419 29.5796V27.9904C54.9419 27.3811 54.8097 26.9472 54.5403 26.6791C54.271 26.411 53.8352 26.2794 53.2231 26.2794H46.8669V31.2955V31.2906Z" fill="white"/>
<path d="M74.7835 37.6667C74.7835 37.9787 74.7248 38.2712 74.6072 38.5491C74.4897 38.8269 74.3232 39.0707 74.1175 39.2754C73.907 39.485 73.667 39.6459 73.3879 39.7629C73.1088 39.8799 72.815 39.9432 72.5016 39.9432H63.3542C63.0408 39.9432 62.747 39.8847 62.4679 39.7629C62.1888 39.6459 61.9439 39.4801 61.7383 39.2754C61.5277 39.0707 61.3661 38.8269 61.2486 38.5491C61.131 38.2712 61.0674 37.9787 61.0674 37.6667V26.2794C61.0674 25.9674 61.1261 25.675 61.2486 25.3971C61.371 25.1192 61.5326 24.8804 61.7383 24.6756C61.9488 24.4709 62.1888 24.31 62.4679 24.1882C62.747 24.0663 63.0408 24.0029 63.3542 24.0029H72.5016C72.815 24.0029 73.1088 24.0614 73.3879 24.1882C73.667 24.3149 73.9119 24.4758 74.1175 24.6756C74.3281 24.8804 74.4897 25.1192 74.6072 25.3971C74.7248 25.675 74.7835 25.9723 74.7835 26.2794V37.6667ZM63.3444 26.2794V37.6667H72.4918V26.2794H63.3444Z" fill="white"/>
<path d="M78.8975 26.2797C78.8975 25.9677 78.9562 25.6752 79.0737 25.3973C79.1913 25.1195 79.3578 24.8806 79.5634 24.6759C79.774 24.4711 80.014 24.3103 80.2931 24.1884C80.5722 24.0665 80.866 24.0032 81.1794 24.0032H89.8714C90.1848 24.0032 90.4786 24.0617 90.7577 24.1884C91.0368 24.3152 91.2817 24.476 91.4873 24.6759C91.6979 24.8806 91.8595 25.1195 91.977 25.3973C92.0945 25.6752 92.1582 25.9726 92.1582 26.2797V28.3368H89.8665V26.2797H81.1745V37.667H89.8665V35.6196H92.1582V37.667C92.1582 37.979 92.0994 38.2715 91.977 38.5493C91.8546 38.8272 91.693 39.0709 91.4873 39.2756C91.2768 39.4853 91.0368 39.6461 90.7577 39.7631C90.4786 39.8801 90.1848 39.9435 89.8714 39.9435H81.1794C80.866 39.9435 80.5722 39.885 80.2931 39.7631C80.014 39.6461 79.7691 39.4804 79.5634 39.2756C79.3529 39.0709 79.1913 38.8272 79.0737 38.5493C78.9562 38.2715 78.8975 37.979 78.8975 37.667V26.2797Z" fill="white"/>
<path d="M98.1228 23.998V30.8811L105.762 23.998H108.989L100.321 31.8171L109.337 39.9481H106.11L98.1228 32.7774V39.9481H95.8311V23.998H98.1228Z" fill="white"/>
<path d="M114.085 23.998L118.742 31.4466L123.413 23.998H126.072L119.892 33.6159V39.9432H117.601V33.6159L111.421 23.998H114.08H114.085Z" fill="white"/>
</svg>
