<svg preserveAspectRatio="xMidYMid meet" overflow="visible" viewBox="0 0 14 14" fill="none" xmlns="http://www.w3.org/2000/svg">
<g id="icon_star">
<path id="Vector" d="M7.28427 1.83848C7.1178 1.35483 6.84698 1.35537 6.68259 1.8398L5.75422 4.5745C5.58983 5.05892 5.05903 5.59005 4.57461 5.75477L1.86025 6.67789C1.37594 6.84261 1.37495 7.11495 1.85806 7.28317L4.55612 8.22248C5.03923 8.3907 5.57069 8.92402 5.73716 9.40778L6.67877 12.145C6.84512 12.6288 7.11517 12.6279 7.27869 12.1431L8.19798 9.41784C8.36139 8.93309 8.8912 8.40087 9.37519 8.23517L12.1321 7.29094C12.6161 7.12523 12.6155 6.85552 12.1309 6.69167L9.41762 5.77391C8.93298 5.60995 8.40022 5.08014 8.23375 4.59648L7.28427 1.83848Z" fill="url(#paint0_linear_0_185)"/>
</g>
<defs>
<linearGradient id="paint0_linear_0_185" x1="6.99555" y1="1.47611" x2="6.99555" y2="12.5073" gradientUnits="userSpaceOnUse">
<stop stop-color="white"/>
<stop offset="1" stop-color="#999999"/>
</linearGradient>
</defs>
</svg>
