<svg width="44" height="44" viewBox="0 0 44 44" fill="none" xmlns="http://www.w3.org/2000/svg">
  <path d="M34.6667 0H9.33333C4.17868 0 0 4.09593 0 9.14851V34.8515C0 39.9041 4.17868 44 9.33333 44H34.6667C39.8213 44 44 39.9041 44 34.8515V9.14851C44 4.09593 39.8213 0 34.6667 0Z" fill="#F3FF97" />
  <path d="M17.9307 21.9541C18.0025 21.8485 18.1482 21.8234 18.252 21.8984L23.3418 25.5781C23.4003 25.6204 23.4355 25.6879 23.4355 25.7598V26.4199C23.4355 26.4918 23.4004 26.5592 23.3418 26.6016L18.252 30.2822C18.1481 30.3571 18.0024 30.3312 17.9307 30.2256L17.5234 29.626C17.4554 29.5257 17.4789 29.3897 17.5771 29.3184L22.0352 26.0928L17.5771 22.8613C17.4879 22.7964 17.4601 22.6782 17.5068 22.582L17.5234 22.5547L17.9307 21.9541Z" fill="#0F0F0F" />
  <path d="M17.2832 18.5186C17.387 18.4436 17.5327 18.4685 17.6045 18.5742L18.0117 19.1738C18.0799 19.2742 18.0556 19.4101 17.957 19.4814L13.5 22.707L17.957 25.9385C18.0465 26.0033 18.0751 26.1215 18.0283 26.2178L18.0117 26.2461L17.6045 26.8457C17.5327 26.9514 17.387 26.9764 17.2832 26.9014L12.1924 23.2217C12.134 23.1793 12.0996 23.1118 12.0996 23.04V22.3799C12.0996 22.3081 12.134 22.2406 12.1924 22.1982L17.2832 18.5186Z" fill="#0F0F0F" />
  <path fill-rule="evenodd" clip-rule="evenodd" d="M26.6152 10C27.4433 10 28.196 10.3392 28.7412 10.8857C29.2862 11.4323 29.624 12.1865 29.624 13.0166V14.8115L29.625 14.8086H31.5723C32.5144 14.8086 33.3713 15.1959 33.9932 15.8184C34.6139 16.4407 34.9999 17.2986 35 18.2451V30.5635C35 31.5091 34.614 32.3677 33.9932 32.9912C33.3724 33.6134 32.5163 34 31.5723 34H12.4277C11.4858 34 10.6287 33.6135 10.0068 32.9912C9.38602 32.3688 9 31.5101 9 30.5635V13.0166C9 12.1865 9.33783 11.4333 9.88281 10.8857C10.428 10.3392 11.1807 10 12.0088 10H26.6152ZM10.2207 30.5596C10.2208 31.1673 10.4702 31.7211 10.8701 32.1221C11.2702 32.523 11.8225 32.7725 12.4287 32.7725H31.5732C32.1796 32.7725 32.7317 32.5232 33.1328 32.1221C33.5327 31.7211 33.7811 31.1672 33.7812 30.5596V28.2988L33.7793 28.2998H28.2061C27.6745 28.2997 27.1893 28.0818 26.8369 27.7275L26.8359 27.7295C26.4847 27.3772 26.2676 26.8906 26.2676 26.3545V22.4463C26.2677 21.9145 26.4848 21.4283 26.8359 21.0762L26.8398 21.0723C27.1922 20.7201 27.6755 20.502 28.207 20.502H33.7803V18.2422C33.7802 17.6345 33.5317 17.0818 33.1318 16.6797C32.7318 16.2786 32.1786 16.0293 31.5723 16.0293H12.0107C11.3413 16.0293 10.7213 15.8066 10.2207 15.4336V30.5596ZM28.2061 21.7246C28.0072 21.7247 27.8268 21.8057 27.6973 21.9355L27.6953 21.9375C27.5659 22.0673 27.4864 22.2479 27.4863 22.4473V26.3555C27.4863 26.5529 27.5666 26.7353 27.6982 26.8662L27.6963 26.8682L27.6982 26.8701C27.8277 26.9999 28.0082 27.081 28.207 27.0811H33.7803V21.7275L33.7793 21.7246H28.2061ZM12.0088 11.2178C11.5165 11.2178 11.0695 11.4188 10.7441 11.7451C10.4198 12.0703 10.2179 12.5193 10.2178 13.0127C10.2178 13.5063 10.4197 13.955 10.7441 14.2812C11.0685 14.6065 11.5166 14.8086 12.0088 14.8086L28.4062 14.8076V13.0127C28.4061 12.5193 28.2052 12.0713 27.8799 11.7451C27.5555 11.4199 27.1075 11.2178 26.6152 11.2178H12.0088Z" fill="#0F0F0F" />
</svg>
