<svg xmlns="http://www.w3.org/2000/svg" width="22" height="22" viewBox="0 0 22 22" fill="none">
  <path d="M2 6C2 3.79086 3.79086 2 6 2H7V20H6C3.79086 20 2 18.2091 2 16V6Z" fill="currentColor"/>
  <path d="M16 2.5C17.933 2.5 19.5 4.067 19.5 6V16C19.5 17.933 17.933 19.5 16 19.5H8.5V2.5H16Z" stroke="currentColor"/>
  <path fill-rule="evenodd" clip-rule="evenodd" d="M14.6292 8.4174C14.8127 8.21124 15.129 8.19307 15.3353 8.37639C15.5414 8.55996 15.5597 8.87524 15.3763 9.08147L13.6673 10.9994L15.3763 12.9184C15.5599 13.1246 15.5415 13.4408 15.3353 13.6244C15.129 13.8078 14.8128 13.7896 14.6292 13.5834L12.6263 11.3324C12.4579 11.143 12.4579 10.8578 12.6263 10.6684L14.6292 8.4174Z" fill="currentColor"/>
</svg>
