<svg xmlns="http://www.w3.org/2000/svg" width="22" height="22" viewBox="0 0 22 22" fill="none">
  <path fill-rule="evenodd" clip-rule="evenodd" d="M12.8612 9.268C14.0587 8.77958 15 7.987 15 6.8421V4.94445C15 3.8131 14.0442 3.06468 12.8493 2.62104C11.639 2.17169 10.0541 1.97737 8.4934 2.00208C6.93173 2.02681 5.35145 2.27153 4.14723 2.73133C2.97496 3.17893 2 3.89893 2 4.94445V6.8421C2 7.987 2.94129 8.77958 4.13883 9.268C5.34934 9.76172 6.93573 10 8.5 10C10.0643 10 11.6507 9.76172 12.8612 9.268ZM4.441 3.37924C3.31915 3.80759 2.76471 4.35915 2.76471 4.94445C2.76471 5.64263 3.34541 6.23742 4.44614 6.67514C5.53078 7.10645 7.00445 7.33042 8.5 7.33042C9.99555 7.33042 11.4692 7.10645 12.5539 6.67514C13.6546 6.23742 14.2353 5.64263 14.2353 4.94445C14.2353 4.25125 13.6617 3.67967 12.5625 3.27157C11.4787 2.86919 10.0047 2.68001 8.5066 2.70373C7.00944 2.72744 5.5309 2.96308 4.441 3.37924ZM14.2353 6.5106V6.8421C14.2353 7.56856 13.6472 8.17948 12.5506 8.62673C12.3589 8.7049 12.1551 8.77642 11.9412 8.84121V7.61897C12.2643 7.53278 12.5716 7.43288 12.8579 7.31903C13.385 7.10944 13.8643 6.8415 14.2353 6.5106ZM11.1765 7.79237C10.8297 7.85825 10.4711 7.91038 10.1059 7.94897V9.20779C10.4752 9.1652 10.8342 9.10771 11.1765 9.03561V7.79237ZM9.34118 8.00966V9.27384C9.06321 9.29007 8.782 9.29825 8.5 9.29825C8.42346 9.29825 8.34697 9.29764 8.27059 9.29644V8.0305C8.34708 8.03162 8.42357 8.03217 8.5 8.03217C8.78045 8.03217 9.06161 8.0247 9.34118 8.00966ZM7.50588 8.00066C7.14396 7.97756 6.78543 7.94168 6.43529 7.89281V9.14636C6.78193 9.19942 7.14068 9.23875 7.50588 9.26408V8.00066ZM5.67059 7.76226V9.00217C5.28789 8.91535 4.92795 8.80977 4.6 8.68585V7.48372C4.93704 7.59318 5.29623 7.68593 5.67059 7.76226ZM3.83529 7.18773C3.42956 7.00094 3.06227 6.77603 2.76471 6.5106V6.8421C2.76471 7.4184 3.13483 7.92199 3.83529 8.32884V7.18773Z" fill="currentColor"/>
  <path fill-rule="evenodd" clip-rule="evenodd" d="M7 10.0003V11.8421C7 12.987 7.94129 13.7796 9.13883 14.268C10.3493 14.7617 11.9357 15 13.5 15C15.0643 15 16.6507 14.7617 17.8612 14.268C19.0587 13.7796 20 12.987 20 11.8421V9.94445C20 8.8131 19.0442 8.06468 17.8493 7.62104C17.0479 7.3235 16.0822 7.13778 15.0681 7.05342C15.0391 7.29856 14.9697 7.5279 14.8661 7.74189C15.8712 7.81593 16.8107 7.99246 17.5625 8.27157C18.6617 8.67968 19.2353 9.25125 19.2353 9.94445C19.2353 10.6426 18.6546 11.2374 17.5539 11.6751C16.4692 12.1065 14.9956 12.3304 13.5 12.3304C12.0044 12.3304 10.5308 12.1065 9.44614 11.6751C8.40191 11.2599 7.82569 10.7033 7.76929 10.0511C7.51214 10.0406 7.25514 10.0237 7 10.0003ZM19.2353 11.5106V11.8421C19.2353 12.5686 18.6472 13.1795 17.5506 13.6267C17.3589 13.7049 17.1551 13.7764 16.9412 13.8412V12.619C17.2643 12.5328 17.5716 12.4329 17.8579 12.319C18.385 12.1094 18.8643 11.8415 19.2353 11.5106ZM16.1765 12.7924C15.8297 12.8583 15.4711 12.9104 15.1059 12.949V14.2078C15.4752 14.1652 15.8342 14.1077 16.1765 14.0356V12.7924ZM14.3412 13.0097V14.2738C14.0632 14.2901 13.782 14.2982 13.5 14.2982C13.4235 14.2982 13.347 14.2976 13.2706 14.2964V13.0305C13.3471 13.0316 13.4236 13.0322 13.5 13.0322C13.7805 13.0322 14.0616 13.0247 14.3412 13.0097ZM12.5059 13.0007C12.144 12.9776 11.7854 12.9417 11.4353 12.8928V14.1464C11.7819 14.1994 12.1407 14.2388 12.5059 14.2641V13.0007ZM10.6706 12.7623V14.0022C10.2879 13.9154 9.92795 13.8098 9.6 13.6859V12.4837C9.93704 12.5932 10.2962 12.6859 10.6706 12.7623ZM8.83529 12.1877C8.42956 12.0009 8.06227 11.776 7.76471 11.5106V11.8421C7.76471 12.4184 8.13483 12.922 8.83529 13.3288V12.1877Z" fill="currentColor"/>
  <path fill-rule="evenodd" clip-rule="evenodd" d="M16.2289 14.8188C16.2331 14.8602 16.2353 14.9021 16.2353 14.9445C16.2353 15.6426 15.6546 16.2374 14.5539 16.6751C13.4692 17.1065 11.9956 17.3304 10.5 17.3304C9.00445 17.3304 7.53078 17.1065 6.44614 16.6751C5.34542 16.2374 4.76471 15.6426 4.76471 14.9445C4.76471 14.3591 5.31915 13.8076 6.441 13.3792C6.72204 13.2719 7.02891 13.1766 7.35528 13.0939C7.2133 12.8945 7.10234 12.6798 7.02876 12.4494C6.71836 12.5321 6.42294 12.6261 6.14723 12.7313C4.97496 13.1789 4 13.8989 4 14.9445V16.8421C4 17.987 4.94129 18.7796 6.13883 19.268C7.34934 19.7617 8.93573 20 10.5 20C12.0643 20 13.6507 19.7617 14.8612 19.268C16.0587 18.7796 17 17.987 17 16.8421V14.9445C17 14.8442 16.9925 14.747 16.978 14.6527C16.7338 14.7148 16.4835 14.7703 16.2289 14.8188ZM16.2353 16.5106V16.8421C16.2353 17.5686 15.6472 18.1795 14.5506 18.6267C14.3589 18.7049 14.1551 18.7764 13.9412 18.8412V17.619C14.2643 17.5328 14.5716 17.4329 14.8579 17.319C15.385 17.1094 15.8643 16.8415 16.2353 16.5106ZM13.1765 17.7924C12.8297 17.8583 12.4711 17.9104 12.1059 17.949V19.2078C12.4752 19.1652 12.8342 19.1077 13.1765 19.0356V17.7924ZM11.3412 18.0097V19.2738C11.0632 19.2901 10.782 19.2982 10.5 19.2982C10.4235 19.2982 10.347 19.2976 10.2706 19.2964V18.0305C10.3471 18.0316 10.4236 18.0322 10.5 18.0322C10.7805 18.0322 11.0616 18.0247 11.3412 18.0097ZM9.50588 18.0007C9.14396 17.9776 8.78543 17.9417 8.43529 17.8928V19.1464C8.78193 19.1994 9.14068 19.2387 9.50588 19.2641V18.0007ZM7.67059 17.7623V19.0022C7.28789 18.9153 6.92795 18.8098 6.6 18.6859V17.4837C6.93704 17.5932 7.29623 17.6859 7.67059 17.7623ZM5.83529 17.1877C5.42956 17.0009 5.06227 16.776 4.76471 16.5106V16.8421C4.76471 17.4184 5.13483 17.922 5.83529 18.3288V17.1877Z" fill="currentColor"/>
</svg>
