<svg xmlns="http://www.w3.org/2000/svg" width="22" height="22" viewBox="0 0 22 22" fill="none">
  <path d="M20 6C20 3.79086 18.2091 2 16 2H15V20H16C18.2091 20 20 18.2091 20 16V6Z" fill="currentColor"/>
  <path d="M6 2.5C4.067 2.5 2.5 4.067 2.5 6V16C2.5 17.933 4.067 19.5 6 19.5H13.5V2.5H6Z" stroke="currentColor"/>
  <path fill-rule="evenodd" clip-rule="evenodd" d="M7.36998 8.41715C7.18634 8.21122 6.87007 8.19265 6.66393 8.37613C6.45796 8.5596 6.43983 8.87498 6.62291 9.08121L8.33189 10.9992L6.62291 12.9181C6.43943 13.1242 6.45806 13.4405 6.66393 13.6242C6.87019 13.8078 7.18638 13.7894 7.36998 13.5832L9.37291 11.3322C9.54155 11.1427 9.54155 10.8576 9.37291 10.6681L7.36998 8.41715Z" fill="currentColor"/>
</svg>

