<svg xmlns="http://www.w3.org/2000/svg" width="16" height="16" viewBox="0 0 16 16" fill="none">
  <path d="M7.87537 2L7.02516 3.73765C6.41763 4.97905 5.60339 6.10807 4.61726 7.07643L4.50556 7.18193C3.87222 7.79679 3.51036 8.63891 3.5002 9.52156V9.63326C3.48343 11.3617 4.51338 12.9287 6.10668 13.5988L6.26804 13.6671C7.31303 14.111 8.49356 14.111 9.53855 13.6671H9.57578C11.181 12.9697 12.2109 11.3771 12.1885 9.62706V6.93369C11.6535 8.15534 10.6821 9.13346 9.46408 9.6767C9.46408 9.6767 9.46408 9.6767 9.42684 9.6767C9.38961 9.6767 8.95519 9.85668 8.76902 9.6767C8.60273 9.50845 8.5868 9.24304 8.73178 9.05611L8.77522 9.02508H8.80625C10.231 7.94214 10.5631 5.93561 9.56337 4.45133C8.7566 3.22256 7.87537 2 7.87537 2Z" fill="#F6465D"/>
</svg>

