<svg xmlns="http://www.w3.org/2000/svg" width="14" height="14" viewBox="0 0 14 14" fill="none">
  <path d="M6.99902 0C8.93114 5.23438e-05 10.6814 0.784241 11.9473 2.0498C13.2132 3.31574 13.998 5.06663 13.998 6.99902C13.998 8.03331 13.7722 9.01496 13.3691 9.89844H12.251C12.7268 9.03909 12.998 8.05097 12.998 6.99902C12.998 5.3425 12.3263 3.84291 11.2402 2.75684C10.1542 1.67114 8.65527 1.00005 6.99902 1C5.34253 1.00011 3.84289 1.6708 2.75684 2.75684C1.67081 3.8429 1.00009 5.34252 1 6.99902C1.00005 8.65527 1.67114 10.1542 2.75684 11.2402C3.84289 12.3263 5.34253 12.9979 6.99902 12.998C8.65557 12.998 10.1542 12.3263 11.2402 11.2402C11.3499 11.1306 11.4547 11.0162 11.5557 10.8984H12.8105C12.5568 11.2757 12.2675 11.627 11.9473 11.9473C10.6813 13.2132 8.93145 13.998 6.99902 13.998C5.06666 13.9979 3.31572 13.2132 2.0498 11.9473C0.784241 10.6814 5.23434e-05 8.93114 0 6.99902C8.56017e-05 5.06665 0.783916 3.31574 2.0498 2.0498C3.31572 0.783909 5.06666 0.000110403 6.99902 0ZM7.16211 5.19922C7.43798 5.19945 7.662 5.42332 7.66211 5.69922V9.74902H8.79883V10.749H5.52441V9.74902H6.66211V6.19922H5.84961V5.19922H7.16211ZM7.8125 4.07617H6.18652V2.4502H7.8125V4.07617Z" fill="currentColor"/>
</svg>
