<svg xmlns="http://www.w3.org/2000/svg" width="22" height="22" viewBox="0 0 22 22" fill="none">
<path d="M10.752 2C15.5854 2 19.5036 6.02905 19.5039 10.999C19.5039 12.3457 19.2135 13.6221 18.6973 14.7686L17.4668 13.7559C17.7983 12.9035 17.9824 11.9732 17.9824 10.999C17.9821 6.89345 14.7448 3.56543 10.752 3.56543C6.75927 3.5656 3.5228 6.89355 3.52246 10.999C3.52246 15.1048 6.75906 18.4334 10.752 18.4336C10.8155 18.4336 10.8792 18.4304 10.9424 18.4287L10.9355 18.4336L15.6846 18.4346H17.8281L16.7861 17.5156C16.2301 17.025 16.1682 16.2052 16.499 15.5498L17.666 16.5098C17.5814 16.6217 17.4958 16.7332 17.4062 16.8408C17.496 16.7332 17.5826 16.6223 17.668 16.5107L18.4707 17.1719L18.5811 17.0371L19.5996 17.9346C20.4039 18.6438 19.916 19.9998 18.8564 20H10.5684L10.5703 19.9951C5.82067 19.8955 2 15.9068 2 10.999C2.00034 6.02916 5.91864 2.00017 10.752 2ZM10.8496 13.499C11.135 13.499 11.3718 13.6 11.5596 13.8008C11.7471 14.0015 11.8408 14.2583 11.8408 14.5713C11.8408 14.8765 11.7473 15.1303 11.5596 15.3311C11.3719 15.5317 11.1349 15.6318 10.8496 15.6318C10.5643 15.6318 10.3273 15.5318 10.1396 15.3311C9.95191 15.1303 9.8584 14.8765 9.8584 14.5713C9.85847 14.2584 9.95219 14.0014 10.1396 13.8008C10.3273 13.6 10.5643 13.4991 10.8496 13.499ZM11.0303 6.36719C11.5784 6.36722 12.0629 6.45615 12.4834 6.63281C12.9112 6.80947 13.2451 7.07825 13.4854 7.43945C13.7331 7.79274 13.8573 8.23846 13.8574 8.77637C13.8574 9.07348 13.7969 9.33471 13.6768 9.55957C13.5641 9.77642 13.4143 9.9737 13.2266 10.1504C13.0464 10.319 12.8551 10.4839 12.6523 10.6445C12.4496 10.7971 12.2616 10.9573 12.0889 11.126C11.9162 11.2946 11.7812 11.4836 11.6836 11.6924C11.586 11.9011 11.5479 12.1458 11.5703 12.4268H10.1172C10.0797 12.1057 10.103 11.8248 10.1855 11.584C10.2756 11.3432 10.3991 11.1263 10.5566 10.9336C10.7218 10.7408 10.9024 10.564 11.0977 10.4033C11.3004 10.2427 11.4884 10.0862 11.6611 9.93359C11.8413 9.78102 11.988 9.62447 12.1006 9.46387C12.2132 9.30327 12.2695 9.1263 12.2695 8.93359C12.2695 8.69285 12.213 8.48792 12.1006 8.31934C11.9879 8.15068 11.8223 8.02194 11.6045 7.93359C11.3943 7.84528 11.1391 7.80082 10.8389 7.80078C10.4935 7.80078 10.1779 7.88143 9.89258 8.04199C9.60724 8.20261 9.32568 8.43973 9.04785 8.75293L8.12402 7.83691C8.48436 7.39538 8.90858 7.04232 9.39648 6.77734C9.89211 6.50427 10.437 6.36719 11.0303 6.36719Z" fill="#00FFB2"/>
</svg>

