<svg width="318" height="228" viewBox="0 0 318 228" fill="currentColor" xmlns="http://www.w3.org/2000/svg">
  <path d="M158.906 0C189.569 0.000181457 212.469 17.7518 228.243 37.874C237.896 35.3956 251.019 32.6199 263.813 31.377C271.47 30.633 279.292 30.4082 286.31 31.2334C293.142 32.0368 300.267 33.9501 305.542 38.3662C313.135 44.7237 316.473 54.2149 317.467 64.0723C318.468 73.9868 317.223 85.2853 314.65 96.752C309.496 119.714 298.63 145.015 286.75 164.643C274.95 184.139 262.441 199.535 245.941 210.216C229.358 220.95 209.478 226.453 183.729 227.493L183.568 227.5H134.245L134.083 227.493C108.335 226.453 88.4545 220.95 71.8716 210.216C55.3709 199.535 42.8625 184.139 31.062 164.643C19.182 145.015 8.31611 119.714 3.1626 96.752C0.589072 85.2852 -0.655061 73.9868 0.345215 64.0723C1.33978 54.2148 4.67722 44.7237 12.271 38.3662C17.546 33.9502 24.6701 32.0368 31.5024 31.2334C38.5209 30.4082 46.3424 30.633 53.9995 31.377C66.7927 32.6199 79.9154 35.3956 89.5688 37.874C105.343 17.7517 128.242 0.000141331 158.906 0ZM284.442 47.124C278.983 46.4821 272.405 46.6173 265.36 47.3018C255.944 48.2166 246.193 50.0625 238.016 51.958C246.484 65.7532 249.904 76.8868 252.215 87.2607L253.507 93.0625L248.326 95.9746C239.727 100.806 230.044 106.061 216.026 110.013C202.068 113.947 184.159 116.5 158.906 116.5C133.656 116.5 115.549 113.947 101.497 110.017C87.3619 106.063 77.6661 100.805 69.3394 95.8896L64.3335 92.9346L65.5972 87.2607C67.9083 76.8868 71.3271 65.7531 79.7954 51.958C71.6189 50.0625 61.8676 48.2166 52.4517 47.3018C45.4063 46.6173 38.8297 46.4822 33.3706 47.124C27.7256 47.7878 24.2908 49.1695 22.5415 50.6338C19.3852 53.2762 17.0353 58.0355 16.2642 65.6777C15.4988 73.263 16.41 82.715 18.7739 93.248C23.4955 114.286 33.6305 137.985 44.7505 156.357C55.9499 174.861 66.9418 187.965 80.5659 196.784C94.0798 205.532 110.908 210.526 134.582 211.5H183.231C206.904 210.526 223.733 205.532 237.247 196.784C250.871 187.965 261.863 174.861 273.062 156.357C284.182 137.985 294.316 114.286 299.038 93.248C301.402 82.715 302.314 73.2631 301.548 65.6777C300.777 58.0357 298.427 53.2763 295.271 50.6338C293.522 49.1695 290.087 47.7879 284.442 47.124ZM158.906 16C133.351 16.0002 113.584 31.7786 99.1938 51.6865C97.3564 54.2285 95.6193 56.8221 93.9829 59.4365C87.811 69.2975 84.6806 77.4155 82.6089 85.0498C89.015 88.579 96.2111 91.9246 105.806 94.6084C118.12 98.0526 134.718 100.5 158.906 100.5C183.091 100.5 199.479 98.0529 211.685 94.6123C221.263 91.9125 228.479 88.5441 235.176 84.9521C233.104 77.3463 229.975 69.2554 223.83 59.4365C222.193 56.822 220.456 54.2285 218.619 51.6865C204.228 31.7785 184.461 16.0002 158.906 16Z" fill="currentColor" stroke="currentColor" stroke-width="4" stroke-linecap="round" stroke-linejoin="round"/>
</svg>