<svg xmlns="http://www.w3.org/2000/svg" width="22" height="22" viewBox="0 0 22 22" fill="none">
  <circle cx="11" cy="11" r="8.5" stroke="currentColor"/>
  <path d="M11.0003 2.5C11.9943 2.50018 13.0209 3.29417 13.8285 4.86426C14.6227 6.40866 15.1283 8.5775 15.1283 11C15.1283 13.4225 14.6227 15.5913 13.8285 17.1357C13.0209 18.7058 11.9943 19.4998 11.0003 19.5C10.0063 19.5 8.97983 18.7058 8.17221 17.1357C7.37794 15.5913 6.87143 13.4225 6.87143 11C6.87143 8.5775 7.37794 6.40866 8.17221 4.86426C8.97983 3.29417 10.0063 2.5 11.0003 2.5Z" stroke="currentColor"/>
  <line x1="2.77142" y1="11.2715" x2="18.9714" y2="11.2715" stroke="currentColor"/>
  <line x1="10.8214" y1="3" x2="10.8214" y2="19" stroke="currentColor"/>
</svg>
