<svg xmlns="http://www.w3.org/2000/svg" width="22" height="22" viewBox="0 0 22 22" fill="none">
  <path d="M9.69043 3.29443C9.90284 3.26987 10.1299 3.44588 10.1299 3.73975V10.3696C10.1299 11.198 10.8016 11.8695 11.6299 11.8696H18.2607C18.5544 11.8699 18.7308 12.0977 18.7061 12.3101C18.5576 13.5853 18.1078 14.8124 17.3896 15.8872C16.4963 17.2239 15.2266 18.2661 13.7412 18.8813C12.2557 19.4966 10.621 19.6579 9.04395 19.3442C7.46685 19.0305 6.01788 18.2557 4.88086 17.1187C3.74398 15.9817 2.96993 14.5325 2.65625 12.9556C2.34265 11.3786 2.50384 9.74376 3.11914 8.2583C3.73451 6.77287 4.7764 5.50314 6.11328 4.60986C7.18817 3.89165 8.41519 3.44287 9.69043 3.29443Z" stroke="currentColor"/>
  <path d="M12 3C12 2.44772 12.4494 1.99356 12.9974 2.06242C13.7053 2.15137 14.3996 2.3348 15.0615 2.60896C16.0321 3.011 16.914 3.60028 17.6569 4.34315C18.3997 5.08601 18.989 5.96793 19.391 6.93853C19.6652 7.60043 19.8486 8.29473 19.9376 9.00259C20.0064 9.55057 19.5523 10 19 10L13 10C12.4477 10 12 9.55228 12 9L12 3Z" fill="currentColor"/>
</svg>
