<svg xmlns="http://www.w3.org/2000/svg" width="20" height="20" viewBox="0 0 20 20" fill="none">
  <path d="M12.0989 1C13.5836 1.00005 14.8168 1.4654 15.6803 2.40672C16.533 3.33839 16.9803 4.64141 16.9805 6.07557L16.998 18.7722L16.9935 18.9178C16.8988 20.4339 15.3047 21.4043 13.9099 20.7347V20.7357L13.1145 20.3612L13.1133 20.36C12.8599 20.2351 12.5672 20.2267 12.3084 20.3326H12.3072L10.0196 21.2694C8.89357 21.7331 7.63621 21.7335 6.51652 21.2682L4.23827 20.3326C3.98051 20.2267 3.68655 20.2344 3.43243 20.3586L2.63141 20.7369H2.63034C1.20129 21.4296 -0.00173402 20.3829 0 18.774L0.0117188 6.07557C0.0118529 4.63732 0.404982 3.33356 1.26615 2.4041C2.13599 1.46502 3.36773 1.00002 4.84869 1H12.0989ZM4.84869 2.66667C3.76936 2.66668 2.99158 3.01935 2.49375 3.53803C1.9871 4.06629 1.67839 4.82782 1.67839 6.04688L1.66667 18.7774C1.66651 19.0999 1.98069 19.2779 2.23495 19.1565L3.03684 18.7779C3.74881 18.4363 4.56827 18.4121 5.29656 18.7156L7.57481 19.6526C8.19509 19.9092 8.89571 19.9412 9.5531 19.7487L9.81708 19.6526L12.0967 18.7156C12.8242 18.4121 13.6427 18.4368 14.3551 18.7791H14.3564L15.1451 19.1539C15.3991 19.2758 15.7344 19.0994 15.7347 18.774L15.7139 6.07718V6.04688C15.7139 4.82237 15.4083 4.06046 14.9095 3.53746C14.4209 3.02595 13.6491 2.66671 12.0989 2.66667H4.84869ZM10.9202 12.4961C11.3991 12.4962 11.7869 12.8839 11.7869 13.3628C11.7869 13.8416 11.3991 14.2294 10.9202 14.2294H5.56193C5.08296 14.2294 4.69526 13.8417 4.69526 13.3628C4.69526 12.8838 5.08296 12.4961 5.56193 12.4961H10.9202ZM12.0607 7.19921C12.5396 7.19921 12.9272 7.58708 12.9273 8.06592C12.9273 8.54484 12.5396 8.93254 12.0607 8.93254H4.49349C3.98472 8.93234 3.59682 8.54471 3.59682 8.06592C3.59699 7.58722 3.98483 7.19943 4.49349 7.19921H12.0607Z" fill="currentColor"/>
</svg>

