<svg xmlns="http://www.w3.org/2000/svg" width="22" height="22" viewBox="0 0 22 22" fill="none">
  <path d="M12.0605 3.44629C12.5941 2.55174 13.7577 2.22273 14.6738 2.76074L14.6748 2.75977L16.1445 3.59863L16.3262 3.71484C17.1985 4.33782 17.468 5.53885 16.9238 6.47852V6.47949C16.591 7.05235 16.6221 7.45617 16.7539 7.68457C16.8861 7.91345 17.2221 8.14353 17.8848 8.14355C19.0413 8.14378 19.998 9.08529 19.998 10.2539V11.7451C19.998 12.9018 19.0532 13.8552 17.8848 13.8555C17.2221 13.8555 16.8861 14.0856 16.7539 14.3145C16.6387 14.5143 16.6004 14.8485 16.8154 15.3125L16.9238 15.5195L16.9248 15.5215C17.5027 16.5304 17.1596 17.8205 16.1445 18.3994L14.6748 19.2383L14.6738 19.2373C13.7576 19.7756 12.5941 19.4465 12.0605 18.5518L12.0576 18.5469L11.9639 18.3857L11.9629 18.3838C11.6343 17.8122 11.2679 17.6367 11.002 17.6367C10.7685 17.6369 10.4572 17.772 10.1602 18.1895L10.0342 18.3857L9.94043 18.5469L9.9375 18.5518C9.40374 19.4468 8.23958 19.7764 7.32324 19.2373V19.2383L5.85352 18.3994V18.3984C4.83972 17.8196 4.49406 16.5213 5.07422 15.5195H5.0752C5.40796 14.9468 5.37588 14.5429 5.24414 14.3145C5.11187 14.0856 4.77674 13.8555 4.11426 13.8555C2.94566 13.8554 2.00008 12.9019 2 11.7451V10.2539C2.00008 9.09709 2.94566 8.14362 4.11426 8.14355C4.7768 8.1435 5.11189 7.9134 5.24414 7.68457C5.376 7.45624 5.40788 7.05232 5.0752 6.47949L5.07422 6.47852C4.49418 5.4766 4.83928 4.17724 5.85352 3.59863L7.32324 2.75977V2.76074C8.23944 2.22184 9.40368 2.55156 9.9375 3.44629L9.94043 3.45117L10.0342 3.6123L10.0352 3.61426C10.3638 4.18614 10.7301 4.36127 10.9961 4.36133C11.2629 4.36129 11.6309 4.18524 11.9639 3.6123L12.0576 3.45117L12.0605 3.44629ZM14.1719 3.62402C13.747 3.37198 13.1834 3.5172 12.9199 3.95898L12.8291 4.11426C12.3891 4.87162 11.7423 5.36129 10.9961 5.36133C10.2497 5.36127 9.60479 4.87189 9.16895 4.11426L9.0791 3.95898L9.02637 3.87891C8.74578 3.50009 8.22536 3.3879 7.82715 3.62402L7.81934 3.62793L6.34961 4.4668V4.46777C5.81887 4.77041 5.63653 5.45348 5.93848 5.97656H5.93945C6.37947 6.73391 6.48373 7.53797 6.11035 8.18457C5.73715 8.83064 4.98896 9.1435 4.11426 9.14355C3.49912 9.14362 3.00008 9.6482 3 10.2539V11.7451C3.00008 12.3508 3.49912 12.8554 4.11426 12.8555C4.98884 12.8555 5.7371 13.1676 6.11035 13.8135C6.46046 14.4196 6.39101 15.1643 6.01855 15.8789L5.93945 16.0215C5.65578 16.5119 5.79772 17.1432 6.25391 17.4697L6.34961 17.5312L7.81934 18.3701L7.82715 18.374C8.252 18.6261 8.8156 18.4818 9.0791 18.04L9.16895 17.8838H9.16992C9.60986 17.1267 10.256 16.637 11.002 16.6367C11.7482 16.6367 12.3932 17.1264 12.8291 17.8838L12.9199 18.04L12.9727 18.1191C13.2533 18.4981 13.7736 18.6104 14.1719 18.374L14.1787 18.3701L15.6484 17.5312C16.1786 17.229 16.3627 16.5536 16.0586 16.0205V16.0215C15.6187 15.2642 15.5152 14.46 15.8887 13.8135C16.262 13.1677 17.0102 12.8555 17.8848 12.8555C18.4998 12.8552 18.998 12.3507 18.998 11.7451V10.2539C18.998 9.64324 18.4947 9.14378 17.8848 9.14355C17.0101 9.14353 16.2619 8.83059 15.8887 8.18457C15.5153 7.53796 15.6186 6.73393 16.0586 5.97656C16.3611 5.45335 16.1795 4.77051 15.6484 4.46777V4.4668L14.1787 3.62793L14.1719 3.62402ZM10.9951 7.95703C12.6773 7.95722 14.0427 9.31798 14.043 10.999C14.043 12.6803 12.6775 14.0418 10.9951 14.042C9.31274 14.0418 7.94629 12.6803 7.94629 10.999C7.94657 9.31795 9.31291 7.95718 10.9951 7.95703ZM10.9951 8.95703C9.86295 8.95718 8.94657 9.87248 8.94629 10.999C8.94629 12.1258 9.86277 13.0418 10.9951 13.042C12.1274 13.0418 13.043 12.1258 13.043 10.999C13.0427 9.87251 12.1273 8.95722 10.9951 8.95703Z" fill="currentColor"/>
</svg>
