<svg xmlns="http://www.w3.org/2000/svg" width="22" height="22" viewBox="0 0 22 22" fill="none">
  <path fill-rule="evenodd" clip-rule="evenodd" d="M9.7 11C12.1853 11 14.2 8.98528 14.2 6.5C14.2 4.01472 12.1853 2 9.7 2C7.21472 2 5.2 4.01472 5.2 6.5C5.2 8.98528 7.21472 11 9.7 11ZM9.7 9.65C11.4397 9.65 12.85 8.2397 12.85 6.5C12.85 4.7603 11.4397 3.35 9.7 3.35C7.9603 3.35 6.55 4.7603 6.55 6.5C6.55 8.2397 7.9603 9.65 9.7 9.65Z" fill="currentColor"/>
  <path d="M16.9 7.625C17.2728 7.625 17.575 7.92721 17.575 8.3V9.425H18.7C19.0728 9.425 19.375 9.72721 19.375 10.1C19.375 10.4728 19.0728 10.775 18.7 10.775H17.575V11.9C17.575 12.2728 17.2728 12.575 16.9 12.575C16.5272 12.575 16.225 12.2728 16.225 11.9V10.775H15.1C14.7272 10.775 14.425 10.4728 14.425 10.1C14.425 9.72721 14.7272 9.425 15.1 9.425H16.225V8.3C16.225 7.92721 16.5272 7.625 16.9 7.625Z" fill="currentColor"/>
  <path fill-rule="evenodd" clip-rule="evenodd" d="M16.9 15.95C16.9 18.1868 13.6764 20 9.7 20C5.72355 20 2.5 18.1868 2.5 15.95C2.5 13.7132 5.72355 11.9 9.7 11.9C13.6764 11.9 16.9 13.7132 16.9 15.95ZM15.55 15.95C15.55 16.364 15.2374 17.0139 14.1293 17.6372C13.0635 18.2367 11.5003 18.65 9.7 18.65C7.89972 18.65 6.33646 18.2367 5.27068 17.6372C4.16259 17.0139 3.85 16.364 3.85 15.95C3.85 15.536 4.16259 14.8861 5.27068 14.2628C6.33646 13.6633 7.89972 13.25 9.7 13.25C11.5003 13.25 13.0635 13.6633 14.1293 14.2628C15.2374 14.8861 15.55 15.536 15.55 15.95Z" fill="currentColor"/>
</svg>
